<svg xmlns="http://www.w3.org/2000/svg" xmlns:xlink="http://www.w3.org/1999/xlink" viewBox="0 0 38.5 54.67">
  <g>
    <path fill="#4CACE2" d="M9.337,48.473c-2.825,1.982-6.023,3.35-9.337,4c3.331,1.398,6.864,2.102,10.513,2.102 c0.135,0,0.264-0.006,0.398-0.016l-0.06-0.27c-0.157-0.744-0.315-1.49-0.5-2.234C10.044,50.857,9.689,49.65,9.337,48.473z"></path>
    <path fill="#E61673" d="M15.521,12.283l5.276-6.19l2.486-2.914C19.365,1.098,14.958,0,10.513,0C6.861,0,3.331,0.707,0,2.102 C6.195,3.316,11.78,6.973,15.521,12.283z"></path>
    <path fill="#EA5514" d="M27.517,5.985l-3.863,21.909l11.852-11.552C33.747,12.328,30.993,8.766,27.517,5.985z"></path>
    <path fill="#FBC600" d="M36.079,17.807L23.225,30.334l-1.683,9.557h13.167c2.021-3.873,3.088-8.223,3.088-12.604 C37.797,24.061,37.218,20.874,36.079,17.807z"></path>
    <path fill="#4CACE2" d="M19.194,53.162c2.986-1,5.77-2.521,8.289-4.531c2.564-2.043,4.715-4.494,6.398-7.292H21.285l-0.531,3.015 L19.194,53.162z"></path>
    <path fill="#4CACE2" d="M20.254,27.287c0,1.396-0.118,2.826-0.358,4.271l1.984-1.939l4.339-24.613 c-0.534-0.376-1.091-0.74-1.663-1.087l-8.207,9.625C18.907,17.668,20.254,22.415,20.254,27.287z"></path>
    <path fill="#EA5514" d="M20.069,39.891l1.381-7.828l-2.092,2.043c-0.544,2.027-1.324,3.971-2.318,5.785H20.069z"></path>
    <path fill="#9CC816" d="M16.157,41.338c-0.718,1.131-1.524,2.203-2.397,3.193c-0.951,1.074-2.021,2.088-3.182,3.016 c0.398,1.324,0.814,2.734,1.17,4.158c0.2,0.787,0.368,1.574,0.537,2.361l0.086,0.414c1.817-0.125,3.589-0.418,5.278-0.875 l1.656-9.379l0.511-2.888H16.157z"></path>
  </g>
</svg>