<svg version="1.0" xmlns="http://www.w3.org/2000/svg"
 width="25" height="28" viewBox="0 0 1128 1280"
 preserveAspectRatio="xMidYMid meet">
<g transform="translate(0,1280) scale(0.1,-0.1)"
fill="#000" stroke="none">
<path d="M5156 9258 c-227 -242 -408 -493 -531 -734 -112 -221 -175 -429 -195
-646 -19 -200 6 -370 81 -555 31 -78 35 -93 21 -93 -60 0 -360 -23 -477 -36
-720 -80 -1390 -287 -1783 -551 -112 -76 -246 -204 -312 -298 -142 -207 -235
-488 -261 -791 l-12 -140 -141 -72 c-353 -180 -624 -391 -762 -592 -259 -377
-349 -937 -248 -1535 52 -306 164 -627 306 -876 30 -52 55 -107 56 -124 3 -38
37 -147 64 -199 57 -113 186 -260 303 -346 68 -50 185 -130 191 -130 2 0 23
-12 45 -26 181 -114 571 -272 934 -378 130 -38 391 -107 459 -120 26 -6 113
-24 144 -30 13 -3 31 -7 40 -10 30 -9 506 -91 587 -101 28 -3 75 -10 105 -15
52 -8 89 -13 198 -25 26 -3 56 -8 67 -10 11 -2 63 -7 115 -11 52 -3 97 -8 100
-9 3 -2 46 -6 95 -10 50 -4 101 -8 114 -10 13 -2 73 -7 135 -11 61 -3 125 -8
141 -9 187 -21 1374 -26 1755 -8 177 8 135 9 -315 7 l-520 -2 465 8 c905 15
1466 68 2050 191 291 61 645 166 862 254 34 14 63 23 65 21 2 -2 -28 -16 -67
-32 -38 -15 -69 -29 -67 -31 4 -3 207 65 307 104 310 120 606 274 755 393 83
66 194 183 241 255 40 60 69 115 66 126 0 3 21 32 47 65 136 169 266 407 334
612 337 1014 -86 2216 -933 2651 -70 36 -112 51 -158 57 -61 6 -62 7 -62 37 0
55 -49 273 -85 377 -150 428 -453 819 -839 1080 -248 167 -518 280 -1291 540
-225 76 -491 168 -590 205 -574 213 -922 404 -1157 636 -141 140 -223 273
-271 437 -33 115 -32 346 2 491 l25 104 -23 18 c-13 11 -31 19 -41 19 -11 0
-68 -53 -134 -122z m-4231 -7054 c9 -15 12 -23 6 -20 -11 7 -35 46 -28 46 3 0
12 -12 22 -26z m9405 -157 c0 -1 -28 -29 -62 -62 l-63 -60 60 63 c55 58 65 67
65 59z m-1170 -787 c-8 -5 -19 -10 -25 -10 -5 0 -3 5 5 10 8 5 20 10 25 10 6
0 3 -5 -5 -10z m-4323 -456 c-3 -3 -12 -4 -19 -1 -8 3 -5 6 6 6 11 1 17 -2 13
-5z m321 -21 c-10 -2 -28 -2 -40 0 -13 2 -5 4 17 4 22 1 32 -1 23 -4z m209
-10 c-20 -2 -52 -2 -70 0 -17 2 0 4 38 4 39 0 53 -2 32 -4z"/>
<path d="M6753 773 c15 -2 37 -2 50 0 12 2 0 4 -28 4 -27 0 -38 -2 -22 -4z"/>
</g>
</svg>
